{"title":"Dhoom 3 2013 Hindi 720p Upscaled DVDRip x264 AC3 MSubs-ANON","uid":10109142,"size":4729862522,"categoryP":"video","categoryS":"hd___movies","magnet":"?xt=urn:btih:4d3435a294990ee3cb999348d95ebedaff8b81d8&amp;dn=Dhoom+3+2013+Hindi+720p+Upscaled+DVDRip+x264+AC3+MSubs-ANON&amp;tr=udp%3A%2F%2Ftracker.openbittorrent.com%3A80&amp;tr=udp%3A%2F%2Fopen.demonii.com%3A1337&amp;tr=udp%3A%2F%2Ftracker.coppersurfer.tk%3A6969&amp;tr=udp%3A%2F%2Fexodus.desync.com%3A6969","seeders":1,"leechers":1,"uploader":"HeroMaster","files":-1,"time":1399495803,"description":":::::::::::: ANON PRESENTS ::::::::::::\n\n\n:::: Dhoom 3 2013 Hindi 720p Upscaled DVDRip x264 AC3 MSubs-ANON ::::\n\n\n::Information::\n\n\nDhoom 3 2013 DVDRip Exclusive \n\nBiggest Bollywood Blockbuster\n\n720p Upscaled DVD Rip x264 AC3\n\nMulti Subs\n-English\n-Arabic\n-Dutch\n-Hindi\n\nAudio/Video Sync Perfect &amp; NO Tags\n\n\nHeight                                   : 544 pixels\nDisplay aspect ratio                     : 2.35:1\nFrame rate mode                          : Constant\nFrame rate                               : 23.976 fps\nColor space                              : YUV\nChroma subsampling                       : 4:2:0\nBit depth                                : 8 bits\nScan type                                : Progressive\nBits/(Pixel*Frame)                       : 0.192\nStream size                              : 3.75 GiB (86%)\nWriting library                          : x264 core 120 r2164 da19765\nLanguage                                 : English\nDefault                                  : Yes\nForced                                   : No\n\nAudio\nID                                       : 2\nFormat                                   : AC-3\nFormat/Info                              : Audio Coding 3\nMode extension                           : CM (complete main)\nFormat settings, Endianness              : Big\nCodec ID                                 : A_AC3\nDuration                                 : 2h 51mn\nBit rate mode                            : Constant\nBit rate                                 : 448 Kbps\nChannel(s)                               : 6 channels\nChannel positions                        : Front: L C R, Side: L R, LFE\nSampling rate                            : 48.0 KHz\nBit depth                                : 16 bits\nCompression mode                         : Lossy\nStream size                              : 549 MiB (12%)\nDefault                                  : Yes\nForced                                   : No\n\n\n::IMDB::\n\n &lt;a href=&quot;\nhttp://www.imdb.com/title/tt1833673/&quot; rel=&quot;nofollow&quot; target=&quot;_NEW&quot;&gt;\nhttp://www.imdb.com/title/tt1833673/&lt;/a&gt;\n\n\n::Greetz and Respect::\n\n\nALL CREDIT Goes to ANON for Encoding and ATTIEQ for Distribution.\n\n\n::Poster::\n\n &lt;a href=&quot;\nhttp://i.imgur.com/OTcispb.jpg&quot; rel=&quot;nofollow&quot; target=&quot;_NEW&quot;&gt;\nhttp://i.imgur.com/OTcispb.jpg&lt;/a&gt;\n\n\n::Screenshots::\n\n &lt;a href=&quot;\nhttp://i.imgur.com/J6iizXW.png&quot; rel=&quot;nofollow&quot; target=&quot;_NEW&quot;&gt;\nhttp://i.imgur.com/J6iizXW.png&lt;/a&gt;\n\n &lt;a href=&quot;\nhttp://i.imgur.com/3rWRKqF.png&quot; rel=&quot;nofollow&quot; target=&quot;_NEW&quot;&gt;\nhttp://i.imgur.com/3rWRKqF.png&lt;/a&gt;\n\n &lt;a href=&quot;\nhttp://i.imgur.com/XQrjGjR.png&quot; rel=&quot;nofollow&quot; target=&quot;_NEW&quot;&gt;\nhttp://i.imgur.com/XQrjGjR.png&lt;/a&gt;\n\n\nSEED AND ENJOY!","torrent":{"xt":"urn:btih:4d3435a294990ee3cb999348d95ebedaff8b81d8","amp;dn":"Dhoom+3+2013+Hindi+720p+Upscaled+DVDRip+x264+AC3+MSubs-ANON","amp;tr":["udp%3A%2F%2Ftracker.openbittorrent.com%3A80","udp%3A%2F%2Fopen.demonii.com%3A1337","udp%3A%2F%2Ftracker.coppersurfer.tk%3A6969","udp%3A%2F%2Fexodus.desync.com%3A6969"],"infoHash":"4d3435a294990ee3cb999348d95ebedaff8b81d8","infoHashBuffer":{"type":"Buffer","data":[77,52,53,162,148,153,14,227,203,153,147,72,217,94,190,218,255,139,129,216]},"announce":[],"urlList":[]}}